<svg width="16" height="16" viewBox="0 0 16 16" fill="none" xmlns="http://www.w3.org/2000/svg">
<path d="M14.75 0C15.0815 0 15.3995 0.131696 15.6339 0.366117C15.8683 0.600537 16 0.918479 16 1.25V14.75C16 15.0815 15.8683 15.3995 15.6339 15.6339C15.3995 15.8683 15.0815 16 14.75 16H1.25C0.918479 16 0.600537 15.8683 0.366117 15.6339C0.131696 15.3995 0 15.0815 0 14.75V1.25C0 0.918479 0.131696 0.600537 0.366117 0.366117C0.600537 0.131696 0.918479 0 1.25 0H14.75Z" fill="#E62E04"/>
<path d="M4.38788 5.37509C4.35854 5.30793 4.31102 5.25093 4.25103 5.21094C4.19104 5.17096 4.12113 5.14969 4.0497 5.14969C3.97827 5.14969 3.90836 5.17096 3.84836 5.21094C3.78837 5.25093 3.74085 5.30793 3.71152 5.37509C3.6671 5.65723 3.67367 5.94541 3.73091 6.22509C3.58923 6.15116 3.47314 6.03392 3.39851 5.88939C3.32387 5.74486 3.29434 5.58008 3.31394 5.41759C3.33648 5.2755 3.39696 5.1427 3.4886 5.03407C3.58023 4.92544 3.69939 4.84529 3.83273 4.80259C3.93956 4.76958 4.05225 4.76192 4.16236 4.78018C4.27247 4.79844 4.37714 4.84215 4.46855 4.90804C4.55996 4.97393 4.63573 5.06029 4.69019 5.16065C4.74465 5.26102 4.77639 5.37278 4.78303 5.48759C4.79258 5.61784 4.76897 5.74841 4.71454 5.86637C4.66012 5.98432 4.57676 6.08557 4.47273 6.16009C4.41455 5.91009 4.44849 5.63509 4.38788 5.38509V5.37509ZM12.4218 5.71509C12.3976 5.82146 12.3488 5.92021 12.2796 6.00292C12.2103 6.08563 12.1227 6.14984 12.0242 6.19009C12.0767 5.92166 12.0832 5.64585 12.0436 5.37509C12.0152 5.30806 11.9687 5.25086 11.9096 5.21027C11.8506 5.16969 11.7815 5.14741 11.7106 5.1461C11.6396 5.14478 11.5698 5.16448 11.5094 5.20285C11.449 5.24122 11.4005 5.29666 11.3697 5.36259C11.297 5.61259 11.343 5.88009 11.2824 6.13259C11.1351 6.03335 11.0287 5.88123 10.9839 5.70571C10.9391 5.53019 10.9591 5.34377 11.04 5.18259C11.1186 5.01414 11.2555 4.88205 11.4236 4.81222C11.5918 4.74239 11.7792 4.73984 11.9491 4.80509C12.1231 4.86947 12.2676 4.9983 12.3545 5.16651C12.4414 5.33471 12.4646 5.53026 12.4194 5.71509H12.4218Z" fill="#B32100"/>
<path d="M11.3697 5.3476C11.4009 5.28181 11.4497 5.22657 11.5102 5.18836C11.5708 5.15014 11.6407 5.13054 11.7117 5.13186C11.7827 5.13317 11.8519 5.15534 11.9111 5.19577C11.9703 5.23619 12.0172 5.2932 12.0461 5.3601C12.0845 5.63093 12.0779 5.90654 12.0267 6.1751C11.8745 7.19501 11.3742 8.12536 10.6158 8.79853C9.8574 9.4717 8.89082 9.84343 7.89019 9.84674C6.88956 9.85006 5.92068 9.48475 5.1581 8.81662C4.39553 8.14849 3.8894 7.22148 3.73091 6.2026C3.67486 5.92278 3.66829 5.63483 3.71151 5.3526C3.74085 5.28544 3.78837 5.22844 3.84836 5.18845C3.90835 5.14847 3.97826 5.1272 4.0497 5.1272C4.12113 5.1272 4.19104 5.14847 4.25103 5.18845C4.31102 5.22844 4.35854 5.28544 4.38788 5.3526C4.44848 5.6026 4.41454 5.8726 4.47273 6.1276C4.61368 6.95345 5.03241 7.70164 5.65533 8.24063C6.27824 8.77962 7.06545 9.07493 7.87859 9.07463C8.69173 9.07433 9.47874 8.77845 10.1013 8.239C10.7238 7.69955 11.142 6.95106 11.2824 6.1251C11.343 5.8751 11.297 5.6026 11.3697 5.3551V5.3476Z" fill="white"/>
<path d="M14.75 0C15.0815 0 15.3995 0.131696 15.6339 0.366117C15.8683 0.600537 16 0.918479 16 1.25V3.625C16 3.29348 15.8683 2.97554 15.6339 2.74112C15.3995 2.5067 15.0815 2.375 14.75 2.375H1.25C0.918479 2.375 0.600537 2.5067 0.366117 2.74112C0.131696 2.97554 0 3.29348 0 3.625V1.25C0 0.918479 0.131696 0.600537 0.366117 0.366117C0.600537 0.131696 0.918479 0 1.25 0H14.75Z" fill="#FF9900"/>
</svg>
