<svg width="16" height="20" viewBox="0 0 16 20" xmlns="http://www.w3.org/2000/svg">
<path d="M15.6296 16.5536C15.5852 13.8355 12.8061 13.0324 10.7769 12.4461C10.5401 12.3777 10.3124 12.3118 10.099 12.2461V11.1248C10.5139 10.8648 10.8774 10.5302 11.1707 10.1398H12.4068C13.0116 10.1398 13.5038 9.64766 13.5038 9.04277V7.7148C13.5771 7.54386 13.6179 7.35573 13.6179 7.15819V6.74518C13.6179 6.54784 13.5771 6.35983 13.5038 6.18901V5.50393C13.5038 2.46907 11.0348 0 7.99998 0C4.96575 0 2.49726 2.46907 2.49726 5.50397V6.16944C2.49726 6.17467 2.49785 6.17971 2.49804 6.18491C2.42359 6.35686 2.3821 6.54624 2.3821 6.74522V7.15823C2.3821 7.93898 3.01679 8.57417 3.79692 8.57417H4.11973C4.34332 9.64637 5.00157 10.5608 5.90091 11.1247V12.2461C5.68751 12.3118 5.45985 12.3776 5.22309 12.4461C3.19387 13.0324 0.414793 13.8355 0.370339 16.5536C0.3703 16.5557 0.3703 16.5578 0.3703 16.56V19.6094C0.3703 19.8251 0.545223 20 0.760927 20H1.91906C2.13476 20 2.30968 19.8251 2.30968 19.6094C2.30968 19.3936 2.13476 19.2187 1.91906 19.2187H1.15151V16.5632C1.16796 15.6149 1.60359 14.904 2.52238 14.3261C3.12867 13.9447 3.86988 13.673 4.60051 13.4457L5.54431 15.2845C5.6495 15.4895 5.91884 15.5591 6.11024 15.43L6.53107 15.1461L6.89236 16.504L6.27333 19.2187H5.42677C5.21106 19.2187 5.03614 19.3936 5.03614 19.6093C5.03614 19.8251 5.21106 20 5.42677 20H15.239C15.4547 20 15.6297 19.8251 15.6297 19.6093V16.5599C15.6297 16.5578 15.6297 16.5557 15.6296 16.5536ZM10.56 13.1966C10.5857 13.204 10.6119 13.2116 10.6378 13.2191L9.96256 14.5361L8.69885 13.6839L9.7696 12.9617C10.0183 13.04 10.2829 13.1165 10.56 13.1966ZM8.00025 14.1551L8.78354 14.6833L8.40498 16.1062H7.59498L7.21654 14.6838L8.00025 14.1551ZM8.00017 13.2128L6.68212 12.324V11.5017C7.09466 11.6476 7.53806 11.7276 7.99994 11.7276C8.46178 11.7276 8.90526 11.6479 9.31776 11.502V12.324L8.00017 13.2128ZM11.1824 5.57541C11.177 5.57201 11.1717 5.56862 11.1664 5.56522C10.3648 5.05498 9.67256 4.61432 8.58787 4.92467C8.57779 4.92756 8.56779 4.93084 8.55799 4.93451C8.32803 5.02088 8.11892 5.10139 7.91666 5.17924C6.68138 5.65475 6.00692 5.91444 4.81754 5.881V5.56819C4.81754 3.81334 6.24517 2.38567 7.99994 2.38567C9.75471 2.38567 11.1823 3.81334 11.1823 5.56819V5.57541H11.1824ZM12.7225 9.04277C12.7225 9.21691 12.5809 9.35855 12.4068 9.35855H11.6283C11.7382 9.10937 11.8234 8.84691 11.8803 8.57413H12.2031C12.3865 8.57413 12.5616 8.53867 12.7226 8.4748V9.04277H12.7225ZM12.8366 7.15819C12.8366 7.50815 12.5524 7.79288 12.203 7.79288H11.9633C11.9634 7.78319 11.9637 6.11159 11.9637 6.11159H12.2031C12.5524 6.11159 12.8366 6.39581 12.8366 6.74518V7.15819H12.8366ZM3.79692 7.79292C3.44758 7.79292 3.16336 7.50819 3.16336 7.15823V6.74522C3.16336 6.39585 3.44754 6.11163 3.79692 6.11163H4.03633C4.03633 6.11163 4.03664 7.78323 4.03672 7.79292H3.79692ZM4.04363 5.33033H3.79688C3.61426 5.33033 3.43984 5.36549 3.27945 5.42877C3.3198 2.85923 5.42169 0.781253 7.99998 0.781253C10.579 0.781253 12.6815 2.85946 12.7216 5.4292C12.5609 5.36565 12.3861 5.33033 12.203 5.33033H11.9563C11.8328 3.25501 10.1057 1.60442 7.99998 1.60442C5.89427 1.60442 4.16707 3.25505 4.04363 5.33033ZM4.84106 8.1439C4.84102 8.14351 4.84094 8.14312 4.8409 8.14273C4.8261 8.01839 4.81758 7.89214 4.81758 7.7639V6.66221C6.15403 6.69479 6.95126 6.38807 8.19732 5.90838C8.39357 5.83284 8.59643 5.75475 8.8174 5.67166C9.5553 5.46569 9.97987 5.73604 10.7468 6.22428C10.8799 6.30901 11.0259 6.40186 11.1824 6.49721V7.7639C11.1824 8.3448 11.0252 8.88933 10.7523 9.35859H7.99998C7.78427 9.35859 7.60935 9.53347 7.60935 9.74922C7.60935 9.96496 7.78427 10.1398 7.99998 10.1398H10.1142C9.55163 10.6411 8.81092 10.9464 7.99998 10.9464C6.37384 10.9464 5.02954 9.72012 4.84106 8.1439ZM6.03833 14.5361L5.36231 13.219C5.38817 13.2116 5.41427 13.204 5.43997 13.1966C5.71708 13.1165 5.98161 13.0399 6.23044 12.9617L7.30162 13.684L6.03833 14.5361ZM7.07466 19.2187L7.60627 16.8875H8.39381L8.92623 19.2187H7.07466ZM14.8484 19.2187H9.7276L9.1076 16.504L9.46905 15.1456L9.89089 15.43C10.0824 15.5591 10.3517 15.4895 10.4569 15.2844L11.3996 13.4458C12.1302 13.6731 12.8714 13.9447 13.4776 14.3261C14.3964 14.904 14.832 15.6149 14.8485 16.5632V19.2187H14.8484Z"/>
</svg>
