<svg width="20" height="16" viewBox="0 0 20 16" xmlns="http://www.w3.org/2000/svg">
  <path d="M19.2176 1.46338H7.30206C6.97447 0.613806 6.05418 0 4.97216 0C3.89014 0 2.96985 0.613806 2.64226 1.46338H0.782336C0.350278 1.46338 0 1.76923 0 2.1465C0 2.52376 0.350278 2.82962 0.782336 2.82962H2.64231C2.9699 3.67919 3.89019 4.293 4.97221 4.293C6.05424 4.293 6.97452 3.67919 7.30211 2.82962H19.2177C19.6497 2.82962 20 2.52376 20 2.1465C20 1.76923 19.6497 1.46338 19.2176 1.46338V1.46338ZM4.97216 2.92676C4.47945 2.92676 4.07858 2.57673 4.07858 2.1465C4.07858 1.71627 4.47945 1.36624 4.97216 1.36624C5.46488 1.36624 5.86575 1.71627 5.86575 2.1465C5.86575 2.57673 5.46488 2.92676 4.97216 2.92676Z" fill="#303136"/>
  <path d="M19.2176 7.31701H17.3576C17.03 6.46744 16.1097 5.85364 15.0277 5.85364C13.9458 5.85364 13.0255 6.46744 12.6979 7.31701H0.782336C0.350278 7.31701 0 7.62286 0 8.00012C0 8.37738 0.350278 8.68324 0.782336 8.68324H12.6979C13.0255 9.5328 13.9458 10.1466 15.0278 10.1466C16.1098 10.1466 17.0301 9.5328 17.3577 8.68324H19.2177C19.6497 8.68324 20 8.37738 20 8.00012C20 7.62286 19.6497 7.31701 19.2176 7.31701ZM15.0278 8.78037C14.5351 8.78037 14.1342 8.43035 14.1342 8.00012C14.1342 7.5699 14.5351 7.21987 15.0278 7.21987C15.5205 7.21987 15.9214 7.5699 15.9214 8.00012C15.9214 8.43035 15.5205 8.78037 15.0278 8.78037Z" fill="#303136"/>
  <path d="M19.2176 13.1704H10.654C10.3264 12.3208 9.40608 11.707 8.32405 11.707C7.24203 11.707 6.32174 12.3208 5.99415 13.1704H0.782336C0.350278 13.1704 0 13.4763 0 13.8535C0 14.2308 0.350278 14.5366 0.782336 14.5366H5.99415C6.32174 15.3862 7.24203 16 8.32405 16C9.40608 16 10.3264 15.3862 10.654 14.5366H19.2177C19.6497 14.5366 20 14.2308 20 13.8535C20 13.4763 19.6497 13.1704 19.2176 13.1704ZM8.32405 14.6338C7.83134 14.6338 7.43047 14.2838 7.43047 13.8536C7.43047 13.4233 7.83134 13.0733 8.32405 13.0733C8.81677 13.0733 9.21764 13.4233 9.21764 13.8535C9.21764 14.2837 8.81677 14.6338 8.32405 14.6338V14.6338Z" fill="#303136"/>
</svg>
