<svg width="16" height="16" viewBox="0 0 16 16" fill="none" xmlns="http://www.w3.org/2000/svg">
<rect width="16" height="16" rx="2" fill="#0069FF"/>
<mask id="mask0" mask-type="alpha" maskUnits="userSpaceOnUse" x="0" y="0" width="16" height="16">
<rect width="16" height="16" rx="2" fill="#0069FF"/>
</mask>
<g mask="url(#mask0)">
<path d="M3.25688 8.85186L2.375 17.5L16.25 16V10.733L12.2133 5.84211C11.4564 5.34049 9.2867 4.53789 6.66284 5.34049C4.03899 6.14309 3.29893 8.01582 3.25688 8.85186Z" fill="#E4375A"/>
</g>
<path fill-rule="evenodd" clip-rule="evenodd" d="M7.36021 5.50714C9.89591 4.8277 12.1503 5.66013 12.4713 6.85826C12.7924 8.0564 11.2555 9.90179 8.71981 10.5812C6.18412 11.2607 3.92974 10.4282 3.60846 9.2292C3.28718 8.03017 4.82362 6.18682 7.36021 5.50714ZM6.76465 3.28446C3.09378 4.26807 0.688548 7.19743 1.39305 9.82668C2.09756 12.4559 5.64547 13.7911 9.31634 12.8075C12.9872 11.8239 15.3906 8.89118 14.6858 6.26103C13.9811 3.63088 10.4346 2.29726 6.76369 3.28087L6.76465 3.28446Z" fill="#FFFEFF"/>
</svg>
