<svg width="24" height="24" viewBox="0 0 24 24" fill="none" xmlns="http://www.w3.org/2000/svg">
<circle cx="12" cy="12" r="11.5" stroke="#6FBC9A"/>
<path d="M9.728 14.272V15.216H13.28V16.128H9.728V18H8.112V16.128H6.48V15.216H8.112V6.8H12.512C13.9733 6.8 15.1147 7.12533 15.936 7.776C16.7573 8.416 17.168 9.33333 17.168 10.528C17.168 11.7333 16.7573 12.6613 15.936 13.312C15.1147 13.952 13.9733 14.272 12.512 14.272H9.728ZM15.552 10.544C15.552 9.78667 15.2907 9.20533 14.768 8.8C14.2453 8.39467 13.4933 8.192 12.512 8.192H9.728V12.944H12.512C13.4827 12.944 14.2293 12.736 14.752 12.32C15.2853 11.8933 15.552 11.3013 15.552 10.544Z" fill="#6FBC9A"/>
</svg>
