<svg width="20" height="22" viewBox="0 0 20 22" xmlns="http://www.w3.org/2000/svg">
<path d="M15.38 13.58C15.1969 13.5028 14.995 13.4819 14.8 13.52C14.7374 13.5309 14.6767 13.5512 14.62 13.58C14.5563 13.6019 14.4957 13.6322 14.44 13.67L14.29 13.79C14.1073 13.9816 14.0037 14.2352 14 14.5C13.9992 14.6316 14.0245 14.7621 14.0742 14.8839C14.124 15.0057 14.1973 15.1166 14.29 15.21C14.3869 15.3013 14.4985 15.3756 14.62 15.43C14.8031 15.5053 15.0044 15.5246 15.1984 15.4855C15.3924 15.4463 15.5705 15.3504 15.71 15.21C15.7983 15.1128 15.8694 15.0012 15.92 14.88C15.976 14.7613 16.0034 14.6312 16 14.5C15.9963 14.2352 15.8927 13.9816 15.71 13.79C15.6161 13.6974 15.5036 13.6258 15.38 13.58ZM18 9.68V6.5C18 5.70435 17.6839 4.94129 17.1213 4.37868C16.5587 3.81607 15.7956 3.5 15 3.5H14.22L13.45 1.18C13.3829 0.981379 13.2551 0.808865 13.0846 0.686841C12.9142 0.564818 12.7096 0.499458 12.5 0.5H7.5C7.29036 0.499458 7.08584 0.564818 6.91537 0.686841C6.7449 0.808865 6.61709 0.981379 6.55 1.18L5.78 3.5H5C4.20435 3.5 3.44129 3.81607 2.87868 4.37868C2.31607 4.94129 2 5.70435 2 6.5V9.68C1.41645 9.88631 0.910998 10.2681 0.552938 10.7729C0.194879 11.2778 0.00173951 11.8811 0 12.5V18.5C0 18.7652 0.105357 19.0196 0.292893 19.2071C0.48043 19.3946 0.734784 19.5 1 19.5H2V20.5C2 20.7652 2.10536 21.0196 2.29289 21.2071C2.48043 21.3946 2.73478 21.5 3 21.5C3.26522 21.5 3.51957 21.3946 3.70711 21.2071C3.89464 21.0196 4 20.7652 4 20.5V19.5H16V20.5C16 20.7652 16.1054 21.0196 16.2929 21.2071C16.4804 21.3946 16.7348 21.5 17 21.5C17.2652 21.5 17.5196 21.3946 17.7071 21.2071C17.8946 21.0196 18 20.7652 18 20.5V19.5H19C19.2652 19.5 19.5196 19.3946 19.7071 19.2071C19.8946 19.0196 20 18.7652 20 18.5V12.5C19.9983 11.8811 19.8051 11.2778 19.4471 10.7729C19.089 10.2681 18.5835 9.88631 18 9.68ZM8.22 2.5H11.78L12.11 3.5H7.89L8.22 2.5ZM4 6.5C4 6.23478 4.10536 5.98043 4.29289 5.79289C4.48043 5.60536 4.73478 5.5 5 5.5H15C15.2652 5.5 15.5196 5.60536 15.7071 5.79289C15.8946 5.98043 16 6.23478 16 6.5V9.5H4V6.5ZM18 17.5H2V12.5C2 12.2348 2.10536 11.9804 2.29289 11.7929C2.48043 11.6054 2.73478 11.5 3 11.5H17C17.2652 11.5 17.5196 11.6054 17.7071 11.7929C17.8946 11.9804 18 12.2348 18 12.5V17.5ZM4.62 13.58C4.49725 13.6276 4.3851 13.699 4.29 13.79C4.10727 13.9816 4.00368 14.2352 4 14.5C3.99917 14.6646 4.03901 14.8269 4.11596 14.9725C4.19291 15.118 4.30461 15.2423 4.44113 15.3343C4.57766 15.4263 4.73478 15.4832 4.89857 15.4999C5.06235 15.5166 5.22772 15.4926 5.38 15.43C5.50153 15.3756 5.61308 15.3013 5.71 15.21C5.80268 15.1166 5.87601 15.0057 5.92577 14.8839C5.97554 14.7621 6.00076 14.6316 6 14.5C5.99632 14.2352 5.89273 13.9816 5.71 13.79C5.56938 13.6512 5.3908 13.5572 5.19681 13.5199C5.00282 13.4825 4.80211 13.5034 4.62 13.58ZM11 13.5H9C8.73478 13.5 8.48043 13.6054 8.29289 13.7929C8.10536 13.9804 8 14.2348 8 14.5C8 14.7652 8.10536 15.0196 8.29289 15.2071C8.48043 15.3946 8.73478 15.5 9 15.5H11C11.2652 15.5 11.5196 15.3946 11.7071 15.2071C11.8946 15.0196 12 14.7652 12 14.5C12 14.2348 11.8946 13.9804 11.7071 13.7929C11.5196 13.6054 11.2652 13.5 11 13.5Z"/>
</svg>
