<svg width="20" height="18" viewBox="0 0 20 18" xmlns="http://www.w3.org/2000/svg">
<path d="M17 3.50001H15.72L15.4 2.50001C15.1926 1.91324 14.8077 1.40551 14.2989 1.04717C13.7901 0.688825 13.1824 0.497608 12.56 0.500007H7.44C6.81155 0.501183 6.19933 0.69969 5.68977 1.06751C5.1802 1.43533 4.79901 1.9539 4.6 2.55001L4.28 3.55001H3C2.20435 3.55001 1.44129 3.86608 0.87868 4.42869C0.316071 4.9913 0 5.75436 0 6.55001V14.55C0 15.3457 0.316071 16.1087 0.87868 16.6713C1.44129 17.2339 2.20435 17.55 3 17.55H17C17.7956 17.55 18.5587 17.2339 19.1213 16.6713C19.6839 16.1087 20 15.3457 20 14.55V6.55001C20.0066 6.15185 19.9339 5.75636 19.7862 5.3866C19.6384 5.01683 19.4184 4.68018 19.1392 4.39629C18.86 4.1124 18.527 3.88694 18.1597 3.73306C17.7924 3.57917 17.3982 3.49995 17 3.50001ZM18 14.5C18 14.7652 17.8946 15.0196 17.7071 15.2071C17.5196 15.3947 17.2652 15.5 17 15.5H3C2.73478 15.5 2.48043 15.3947 2.29289 15.2071C2.10536 15.0196 2 14.7652 2 14.5V6.50001C2 6.23479 2.10536 5.98044 2.29289 5.7929C2.48043 5.60536 2.73478 5.50001 3 5.50001H5C5.21807 5.51139 5.43386 5.45108 5.61443 5.32829C5.795 5.20551 5.93042 5.02699 6 4.82001L6.54 3.18001C6.60709 2.98139 6.7349 2.80887 6.90537 2.68685C7.07584 2.56483 7.28036 2.49947 7.49 2.50001H12.61C12.8196 2.49947 13.0242 2.56483 13.1946 2.68685C13.3651 2.80887 13.4929 2.98139 13.56 3.18001L14.1 4.82001C14.1642 5.01075 14.2844 5.1777 14.445 5.29902C14.6055 5.42034 14.799 5.49039 15 5.50001H17C17.2652 5.50001 17.5196 5.60536 17.7071 5.7929C17.8946 5.98044 18 6.23479 18 6.50001V14.5ZM10 5.50001C9.20887 5.50001 8.43552 5.7346 7.77772 6.17413C7.11992 6.61365 6.60723 7.23837 6.30448 7.96927C6.00173 8.70018 5.92252 9.50444 6.07686 10.2804C6.2312 11.0563 6.61216 11.769 7.17157 12.3284C7.73098 12.8878 8.44372 13.2688 9.21964 13.4231C9.99556 13.5775 10.7998 13.4983 11.5307 13.1955C12.2616 12.8928 12.8864 12.3801 13.3259 11.7223C13.7654 11.0645 14 10.2911 14 9.50001C14 8.43914 13.5786 7.42173 12.8284 6.67158C12.0783 5.92143 11.0609 5.50001 10 5.50001ZM10 11.5C9.60444 11.5 9.21776 11.3827 8.88886 11.1629C8.55996 10.9432 8.30362 10.6308 8.15224 10.2654C8.00087 9.89992 7.96126 9.49779 8.03843 9.10983C8.1156 8.72186 8.30608 8.3655 8.58579 8.08579C8.86549 7.80609 9.22186 7.61561 9.60982 7.53844C9.99778 7.46127 10.3999 7.50087 10.7654 7.65225C11.1308 7.80362 11.4432 8.05997 11.6629 8.38887C11.8827 8.71776 12 9.10444 12 9.50001C12 10.0304 11.7893 10.5391 11.4142 10.9142C11.0391 11.2893 10.5304 11.5 10 11.5Z"/>
</svg>
