<svg width="21" height="20" viewBox="0 0 21 20" xmlns="http://www.w3.org/2000/svg">
<path d="M16 7H5.99999C5.73477 7 5.48042 7.10536 5.29288 7.29289C5.10535 7.48043 4.99999 7.73478 4.99999 8C4.99999 8.26522 5.10535 8.51957 5.29288 8.70711C5.48042 8.89464 5.73477 9 5.99999 9H16C16.2652 9 16.5196 8.89464 16.7071 8.70711C16.8946 8.51957 17 8.26522 17 8C17 7.73478 16.8946 7.48043 16.7071 7.29289C16.5196 7.10536 16.2652 7 16 7ZM12 11H5.99999C5.73477 11 5.48042 11.1054 5.29288 11.2929C5.10535 11.4804 4.99999 11.7348 4.99999 12C4.99999 12.2652 5.10535 12.5196 5.29288 12.7071C5.48042 12.8946 5.73477 13 5.99999 13H12C12.2652 13 12.5196 12.8946 12.7071 12.7071C12.8946 12.5196 13 12.2652 13 12C13 11.7348 12.8946 11.4804 12.7071 11.2929C12.5196 11.1054 12.2652 11 12 11ZM11 0C9.68677 0 8.38641 0.258658 7.17315 0.761205C5.9599 1.26375 4.85751 2.00035 3.92892 2.92893C2.05356 4.8043 0.999988 7.34784 0.999988 10C0.991246 12.3091 1.79078 14.5485 3.25999 16.33L1.25999 18.33C1.12123 18.4706 1.02723 18.6492 0.98986 18.8432C0.952486 19.0372 0.973409 19.2379 1.04999 19.42C1.13305 19.5999 1.26769 19.7511 1.43683 19.8544C1.60598 19.9577 1.80199 20.0083 1.99999 20H11C13.6522 20 16.1957 18.9464 18.0711 17.0711C19.9464 15.1957 21 12.6522 21 10C21 7.34784 19.9464 4.8043 18.0711 2.92893C16.1957 1.05357 13.6522 0 11 0ZM11 18H4.40999L5.33999 17.07C5.52624 16.8826 5.63078 16.6292 5.63078 16.365C5.63078 16.1008 5.52624 15.8474 5.33999 15.66C4.03057 14.352 3.21516 12.6305 3.03268 10.7888C2.8502 8.94705 3.31193 7.09901 4.33922 5.55952C5.3665 4.02004 6.89578 2.88436 8.6665 2.34597C10.4372 1.80759 12.3398 1.8998 14.0502 2.60691C15.7606 3.31402 17.1728 4.59227 18.0464 6.22389C18.92 7.85551 19.2009 9.73954 18.8411 11.555C18.4814 13.3705 17.5033 15.005 16.0735 16.1802C14.6438 17.3554 12.8508 17.9985 11 18Z"/>
</svg>
