<?xml version="1.0" encoding="utf-8"?>
<!-- Generator: Adobe Illustrator 24.1.0, SVG Export Plug-In . SVG Version: 6.00 Build 0)  -->
<svg version="1.1" id="Слой_1" xmlns="http://www.w3.org/2000/svg" xmlns:xlink="http://www.w3.org/1999/xlink" x="0px" y="0px"
	 viewBox="0 0 16 16" style="enable-background:new 0 0 16 16;" xml:space="preserve">
<path fill="#B63DA4" class="st0" d="M2,0h12c1.1,0,2,0.9,2,2v12c0,1.1-0.9,2-2,2H2c-1.1,0-2-0.9-2-2V2C0,0.9,0.9,0,2,0z"/>
<path fill="#FFFFFF" class="st1" d="M10.9,7.3c0.3-1,0.5-2.1,0.8-3.1C11.7,4,11.8,4,11.9,4c0.4,0,0.7,0,1.1,0c-0.1,0.4-0.2,0.8-0.3,1.2
	c-0.2,1-0.5,1.9-0.7,2.9c0,0,0,0,0,0.1c-0.1,0.5-0.3,1.1-0.4,1.6c-0.2,0.7-0.4,1.4-0.5,2.1c0,0.1,0,0.1-0.1,0.1c-0.4,0-0.8,0-1.2,0
	c-0.1,0-0.1,0-0.2-0.1C9,10,8.5,8.2,8,6.3c0-0.1,0-0.1-0.1-0.1C7.8,6.6,7.7,7,7.6,7.4c-0.4,1.5-0.7,3-1.1,4.5c0,0,0,0,0,0.1
	c0,0,0,0,0,0.1c0,0,0,0-0.1,0c0,0,0,0-0.1,0c-0.4,0-0.8,0-1.1,0c0,0-0.1,0-0.1,0c0,0-0.1-0.1-0.1-0.1c-0.4-1.5-0.8-3.1-1.2-4.6
	C3.6,6.2,3.3,5.2,3,4.2c0,0,0-0.1,0-0.1h1.4c0.1,0,0.1,0.1,0.1,0.1c0.3,1,0.5,2,0.8,2.9c0.2,0.9,0.4,1.7,0.7,2.6c0,0,0,0,0,0.1
	c0-0.2,0.1-0.4,0.1-0.6c0.4-1.5,0.7-3.1,1.1-4.6c0-0.2,0.1-0.3,0.1-0.5C7.4,4,7.4,4,7.4,4c0.4,0,0.8,0,1.2,0c0.1,0,0.1,0,0.1,0.1
	c0.3,1.2,0.6,2.3,0.9,3.5c0.2,0.7,0.4,1.4,0.6,2.2C10.5,9,10.7,8.1,10.9,7.3z"/>
</svg>
