<svg width="16" height="16" viewBox="0 0 16 16" fill="none" xmlns="http://www.w3.org/2000/svg">
<rect width="16" height="16" rx="2" fill="#FF0000"/>
<path d="M10.0867 3.25H8.68258C7.2784 3.25 6.07021 4.32421 6.07021 6.40546C6.07021 7.64753 6.65796 8.58745 7.67027 9.05741L5.77628 12.5486C5.71099 12.6493 5.77628 12.75 5.87427 12.75H6.75595C6.82124 12.75 6.88654 12.7164 6.91918 12.6493L8.64994 9.22526H9.27033V12.6493C9.27033 12.6829 9.30303 12.75 9.36833 12.75H10.1521C10.2174 12.75 10.25 12.7164 10.25 12.6493V3.38424C10.2174 3.28356 10.1847 3.25 10.0867 3.25ZM9.27033 8.41964H8.74788C6.49472 8.41964 6.65796 4.05567 8.64994 4.05567H9.30303V8.41964H9.27033V8.41964Z" fill="white"/>
</svg>
