<svg width="24" height="35" viewBox="0 0 24 35" fill="none" xmlns="http://www.w3.org/2000/svg">
  <path
    d="M24 12.2093C24 22.3837 13.6 35 12 35C10.8 35 0 22.7907 0 12.2093C0 5.46629 5.37258 0 12 0C18.6274 0 24 5.46629 24 12.2093Z"
    fill="#1C5BFE"/>
  <path
    d="M12.0129 19.096C11.1649 19.096 10.4009 18.912 9.72094 18.544C9.04094 18.168 8.50494 17.652 8.11294 16.996C7.72894 16.34 7.53694 15.608 7.53694 14.8C7.53694 13.992 7.72894 13.26 8.11294 12.604C8.50494 11.948 9.04094 11.436 9.72094 11.068C10.4009 10.692 11.1649 10.504 12.0129 10.504C12.8529 10.504 13.6129 10.692 14.2929 11.068C14.9729 11.436 15.5049 11.948 15.8889 12.604C16.2729 13.252 16.4649 13.984 16.4649 14.8C16.4649 15.616 16.2729 16.352 15.8889 17.008C15.5049 17.656 14.9729 18.168 14.2929 18.544C13.6129 18.912 12.8529 19.096 12.0129 19.096ZM12.0129 18.028C12.6289 18.028 13.1809 17.888 13.6689 17.608C14.1649 17.328 14.5529 16.944 14.8329 16.456C15.1209 15.96 15.2649 15.408 15.2649 14.8C15.2649 14.192 15.1209 13.644 14.8329 13.156C14.5529 12.66 14.1649 12.272 13.6689 11.992C13.1809 11.712 12.6289 11.572 12.0129 11.572C11.3969 11.572 10.8369 11.712 10.3329 11.992C9.83694 12.272 9.44494 12.66 9.15694 13.156C8.87694 13.644 8.73694 14.192 8.73694 14.8C8.73694 15.408 8.87694 15.96 9.15694 16.456C9.44494 16.944 9.83694 17.328 10.3329 17.608C10.8369 17.888 11.3969 18.028 12.0129 18.028Z"
    fill="white"/>
</svg>
