<svg width="30" height="43" viewBox="0 0 30 43" fill="none" xmlns="http://www.w3.org/2000/svg">
  <path d="M30 15C30 27.5 17 43 15 43C13.5 43 0 28 0 15C0 6.71573 6.71573 0 15 0C23.2843 0 30 6.71573 30 15Z"
        fill="#BD0D22"/>
  <path
    d="M17.4733 15.4733C18.1269 14.959 18.604 14.2539 18.8382 13.4559C19.0723 12.6579 19.0519 11.8068 18.7799 11.0209C18.5078 10.235 17.9975 9.55351 17.32 9.07116C16.6426 8.5888 15.8316 8.32959 15 8.32959C14.1684 8.32959 13.3574 8.5888 12.68 9.07116C12.0025 9.55351 11.4922 10.235 11.2201 11.0209C10.9481 11.8068 10.9277 12.6579 11.1618 13.4559C11.396 14.2539 11.8731 14.959 12.5267 15.4733C11.4067 15.9219 10.4295 16.6662 9.69926 17.6265C8.969 18.5869 8.51304 19.7275 8.38 20.9266C8.37037 21.0141 8.37808 21.1027 8.40268 21.1873C8.42729 21.2719 8.46831 21.3508 8.52341 21.4195C8.63468 21.5582 8.79652 21.6471 8.97333 21.6666C9.15014 21.686 9.32744 21.6344 9.46621 21.5232C9.60499 21.4119 9.69388 21.2501 9.71333 21.0732C9.85972 19.77 10.4811 18.5665 11.4588 17.6924C12.4365 16.8184 13.7019 16.3353 15.0133 16.3353C16.3247 16.3353 17.5902 16.8184 18.5679 17.6924C19.5455 18.5665 20.1669 19.77 20.3133 21.0732C20.3315 21.2371 20.4096 21.3884 20.5327 21.4979C20.6559 21.6075 20.8152 21.6676 20.98 21.6666H21.0533C21.2281 21.6465 21.3878 21.5581 21.4977 21.4207C21.6076 21.2834 21.6587 21.1082 21.64 20.9332C21.5063 19.7307 21.0479 18.5872 20.3139 17.6254C19.5799 16.6635 18.5979 15.9196 17.4733 15.4733ZM15 14.9999C14.4726 14.9999 13.957 14.8435 13.5185 14.5505C13.0799 14.2575 12.7382 13.841 12.5363 13.3537C12.3345 12.8665 12.2817 12.3303 12.3846 11.813C12.4875 11.2957 12.7414 10.8206 13.1144 10.4476C13.4873 10.0747 13.9625 9.82072 14.4798 9.71783C14.997 9.61493 15.5332 9.66774 16.0205 9.86957C16.5078 10.0714 16.9242 10.4132 17.2173 10.8517C17.5103 11.2903 17.6667 11.8058 17.6667 12.3333C17.6667 13.0405 17.3857 13.7188 16.8856 14.2189C16.3855 14.719 15.7072 14.9999 15 14.9999Z"
    fill="white"/>
</svg>
